<svg width="100" height="100" viewBox="0 0 100 100" fill="none" xmlns="http://www.w3.org/2000/svg">
<circle cx="50" cy="50" r="50" fill="#FFF0EE"/>
<path d="M70.625 29.375H29.375C28.3804 29.375 27.4266 29.7701 26.7233 30.4733C26.0201 31.1766 25.625 32.1304 25.625 33.125V66.875C25.625 67.8696 26.0201 68.8234 26.7233 69.5266C27.4266 70.2299 28.3804 70.625 29.375 70.625H70.625C71.6196 70.625 72.5734 70.2299 73.2766 69.5266C73.9799 68.8234 74.375 67.8696 74.375 66.875V33.125C74.375 32.1304 73.9799 31.1766 73.2766 30.4733C72.5734 29.7701 71.6196 29.375 70.625 29.375ZM41.75 54.125C42.1478 54.4234 42.4108 54.8675 42.4812 55.3598C42.5515 55.8521 42.4234 56.3522 42.125 56.75C41.8266 57.1478 41.3824 57.4108 40.8902 57.4812C40.3979 57.5515 39.8978 57.4234 39.5 57.125L32 51.5C31.7671 51.3253 31.5781 51.0989 31.4479 50.8385C31.3178 50.5782 31.25 50.2911 31.25 50C31.25 49.7089 31.3178 49.4218 31.4479 49.1615C31.5781 48.9011 31.7671 48.6747 32 48.5L39.5 42.875C39.8978 42.5766 40.3979 42.4485 40.8902 42.5188C41.3824 42.5892 41.8266 42.8522 42.125 43.25C42.4234 43.6478 42.5515 44.1479 42.4812 44.6402C42.4108 45.1324 42.1478 45.5766 41.75 45.875L36.2492 50L41.75 54.125ZM55.5523 37.3906L48.0523 63.6406C47.9884 63.8816 47.8771 64.1073 47.7249 64.3048C47.5727 64.5022 47.3826 64.6672 47.1658 64.7903C46.9491 64.9134 46.7099 64.992 46.4624 65.0216C46.2149 65.0512 45.964 65.0311 45.7243 64.9625C45.4846 64.894 45.2611 64.7783 45.0666 64.6223C44.8722 64.4663 44.7108 64.2731 44.592 64.054C44.4731 63.8349 44.3991 63.5942 44.3743 63.3462C44.3495 63.0982 44.3745 62.8477 44.4477 62.6094L51.9477 36.3594C52.0918 35.89 52.4143 35.4959 52.8459 35.2618C53.2775 35.0276 53.7837 34.9721 54.2558 35.1072C54.7278 35.2422 55.1281 35.557 55.3705 35.984C55.613 36.411 55.6782 36.916 55.5523 37.3906ZM68 51.5L60.5 57.125C60.1022 57.4234 59.6021 57.5515 59.1098 57.4812C58.6175 57.4108 58.1734 57.1478 57.875 56.75C57.5766 56.3522 57.4485 55.8521 57.5188 55.3598C57.5892 54.8675 57.8522 54.4234 58.25 54.125L63.7508 50L58.25 45.875C58.053 45.7273 57.8871 45.5422 57.7616 45.3303C57.6362 45.1184 57.5537 44.8839 57.5188 44.6402C57.484 44.3964 57.4976 44.1482 57.5587 43.9097C57.6198 43.6711 57.7273 43.447 57.875 43.25C58.0227 43.053 58.2078 42.8871 58.4197 42.7616C58.6316 42.6362 58.8661 42.5537 59.1098 42.5188C59.3536 42.484 59.6018 42.4976 59.8403 42.5587C60.0789 42.6198 60.303 42.7273 60.5 42.875L68 48.5C68.2329 48.6747 68.4219 48.9011 68.552 49.1615C68.6822 49.4218 68.75 49.7089 68.75 50C68.75 50.2911 68.6822 50.5782 68.552 50.8385C68.4219 51.0989 68.2329 51.3253 68 51.5Z" fill="#F24822"/>
</svg>
