<svg width="74" height="74" viewBox="0 0 74 74" fill="none" xmlns="http://www.w3.org/2000/svg">
<g clip-path="url(#clip0_319_1200)">
<path d="M21.9688 22.5469V49.7188H53.7656C54.2256 49.7188 54.6668 49.9015 54.992 50.2267C55.3173 50.552 55.5 50.9931 55.5 51.4531C55.5 51.9131 55.3173 52.3543 54.992 52.6795C54.6668 53.0048 54.2256 53.1875 53.7656 53.1875H20.2344C19.7744 53.1875 19.3332 53.0048 19.008 52.6795C18.6827 52.3543 18.5 51.9131 18.5 51.4531V22.5469C18.5 22.0869 18.6827 21.6457 19.008 21.3205C19.3332 20.9952 19.7744 20.8125 20.2344 20.8125C20.6944 20.8125 21.1355 20.9952 21.4608 21.3205C21.786 21.6457 21.9688 22.0869 21.9688 22.5469ZM54.9912 28.3975L42.8506 40.5381C42.5254 40.8629 42.0846 41.0453 41.625 41.0453C41.1654 41.0453 40.7246 40.8629 40.3994 40.5381L34.6875 34.8262L28.3975 41.1162C28.0688 41.423 27.6338 41.5901 27.1843 41.5823C26.7347 41.5746 26.3058 41.3925 25.9879 41.0746C25.67 40.7567 25.4879 40.3278 25.4802 39.8782C25.4724 39.4287 25.6395 38.9937 25.9463 38.665L33.4619 31.1494C33.7871 30.8246 34.2279 30.6422 34.6875 30.6422C35.1471 30.6422 35.5879 30.8246 35.9131 31.1494L41.625 36.8613L52.54 25.9463C52.8687 25.6395 53.3037 25.4724 53.7532 25.4802C54.2028 25.4879 54.6317 25.67 54.9496 25.9879C55.2675 26.3058 55.4496 26.7347 55.4573 27.1843C55.4651 27.6338 55.298 28.0688 54.9912 28.3975Z" fill="url(#paint0_linear_319_1200)"/>
</g>
<defs>
<linearGradient id="paint0_linear_319_1200" x1="37" y1="20.8125" x2="37" y2="53.1875" gradientUnits="userSpaceOnUse">
<stop stop-color="#EDA083"/>
<stop offset="1" stop-color="#FF4500"/>
</linearGradient>
<clipPath id="clip0_319_1200">
<rect width="37" height="37" fill="white" transform="translate(18.5 18.5)"/>
</clipPath>
</defs>
</svg>
